<?xml version="1.0" encoding="UTF-8"?>
<svg id="a" xmlns="http://www.w3.org/2000/svg" viewBox="0 0 48 48">
  <path
    d="M45.32,39.84c.45-1.57.68-3.2.68-4.84s-.23-3.27-.68-4.84c-.59-1.96-2.03-3.5-3.95-4.22-1.89-.66-3.87-.99-5.87-.99s-3.97.33-5.86.99c-1.93.73-3.37,2.26-3.95,4.22-.45,1.58-.68,3.21-.68,4.84s.23,3.27.68,4.84c.58,1.96,2.03,3.49,3.95,4.22,1.89.66,3.86.99,5.86.99s3.97-.33,5.87-.99c1.92-.72,3.36-2.26,3.95-4.22"
    style="fill:#f37046; stroke-width:0px;" />
  <path
    d="M22.32,30.16c-.59-1.96-2.03-3.5-3.95-4.22-1.89-.66-3.87-.99-5.87-.99s-3.97.33-5.86.99c-1.93.73-3.37,2.26-3.95,4.22-.45,1.58-.68,3.21-.68,4.84s.23,3.27.68,4.84c.59,1.96,2.03,3.49,3.95,4.22,1.89.66,3.86.99,5.86.99s3.97-.33,5.87-.99c1.92-.72,3.36-2.26,3.95-4.22.45-1.57.68-3.2.68-4.84s-.23-3.27-.68-4.84ZM16.14,37.57c-.33,1.04-1.21,1.82-2.3,2.03-.5.1-1.02.15-1.54.15s-1.03-.05-1.54-.15c-1.08-.21-1.96-.99-2.3-2.03-.24-.76-.37-1.56-.37-2.38s.12-1.61.37-2.38c.33-1.04,1.21-1.82,2.3-2.03.5-.1,1.01-.15,1.54-.15s1.04.05,1.54.15c1.08.21,1.96.99,2.3,2.03.24.77.36,1.56.36,2.38s-.12,1.61-.36,2.38Z"
    style="fill:#ec417a; stroke-width:0px;" />
  <path
    d="M45.32,8.16c-.59-1.96-2.03-3.5-3.95-4.22-1.89-.66-3.87-.99-5.87-.99s-3.97.33-5.86.99c-1.93.73-3.37,2.26-3.95,4.22-.45,1.58-.68,3.21-.68,4.84s.23,3.27.68,4.84c.59,1.96,2.03,3.49,3.95,4.22,1.89.66,3.86.99,5.86.99s3.97-.33,5.87-.99c1.92-.72,3.36-2.26,3.95-4.22.45-1.57.68-3.2.68-4.84s-.23-3.27-.68-4.84ZM39.14,15.57c-.33,1.04-1.21,1.82-2.3,2.03-.5.1-1.02.15-1.54.15s-1.03-.05-1.54-.15c-1.08-.21-1.96-.99-2.3-2.03-.24-.76-.37-1.56-.37-2.38s.12-1.61.37-2.38c.33-1.04,1.21-1.82,2.3-2.03.5-.1,1.01-.15,1.54-.15s1.04.05,1.54.15c1.08.21,1.96.99,2.3,2.03.24.77.36,1.56.36,2.38s-.12,1.61-.36,2.38Z"
    style="fill:#9ccc65; stroke-width:0px;" />
  <path
    d="M22.32,17.84c.45-1.57.68-3.2.68-4.84s-.23-3.27-.68-4.84c-.59-1.96-2.03-3.5-3.95-4.22-1.89-.66-3.87-.99-5.87-.99s-3.97.33-5.86.99c-1.93.73-3.37,2.26-3.95,4.22-.45,1.58-.68,3.21-.68,4.84s.23,3.27.68,4.84c.59,1.96,2.03,3.49,3.95,4.22,1.89.66,3.86.99,5.86.99s3.97-.33,5.87-.99c1.92-.72,3.36-2.26,3.95-4.22"
    style="fill:#00a1cc; stroke-width:0px;" />
</svg>