<svg xmlns="http://www.w3.org/2000/svg" width="48" height="48" viewBox="0 0 48 48"><path fill="#00A1CC" d="M32.7176449,23.0090367 C32.6816704,22.6723563 32.6210816,22.3432393 32.5472413,22.0197828 L33.295144,21.1705157 C35.1828347,18.9461227 36.2488505,16.1390238 36.2488505,13.2375995 C36.2488505,6.46631823 30.7294938,1 23.9988546,1 C23.4649016,1 23.0313313,1.43314604 23.0313313,1.96654423 L23.0313313,15.2655459 C22.6943098,15.3014835 22.3648594,15.3620115 22.0410753,15.435777 L21.1909479,14.6886312 C18.9643017,12.8028507 16.1543592,11.7379137 13.2499959,11.7379137 C6.47185547,11.7379137 1,17.2516851 1,23.9755132 C1,24.5089259 1.43358481,24.9420574 1.96752331,24.9420574 L15.2799966,24.9420574 C15.3330138,25.422492 15.4295722,25.8896688 15.5564297,26.3436216 L14.8483215,27.2628579 C13.1537379,29.439943 12.2827682,32.0029 12.2827682,34.7604637 C12.2808749,41.4867128 17.7526848,47 24.5313099,47 C25.065263,47 25.4988333,46.566854 25.4988333,46.0334558 L25.5007265,32.7233171 C25.7165713,32.6249631 25.7430799,32.613613 25.9589247,32.5171475 L26.8090521,33.2642933 C29.0356983,35.1500738 31.8456408,36.2150108 34.7500041,36.2150108 C41.481128,36.2150108 47,30.7486926 47,23.9774113 C47,23.4439986 46.5664152,23.0108671 46.0324767,23.0108671 L32.7176449,23.0090367 Z M24.5,26 C22.5398512,26 21,24.4605801 21,22.5009802 C21,20.5394199 22.5398512,19 24.5,19 C26.4601488,19 28,20.5394199 28,22.4990198 C28,24.4586197 26.4601488,26 24.5,26 L24.5,26 Z"/></svg>